<?xml version="1.0" standalone="no"?><!DOCTYPE svg PUBLIC "-//W3C//DTD SVG 1.1//EN" "http://www.w3.org/Graphics/SVG/1.1/DTD/svg11.dtd"><svg width="64" height="64" viewBox="0 0 64 64" version="1.1" xmlns="http://www.w3.org/2000/svg" xmlns:xlink="http://www.w3.org/1999/xlink"><defs><style type="text/css"><![CDATA[
@font-face { font-family: ifont; src: url("//at.alicdn.com/t/font_1442373896_4754455.eot?#iefix") format("embedded-opentype"), url("//at.alicdn.com/t/font_1442373896_4754455.woff") format("woff"), url("//at.alicdn.com/t/font_1442373896_4754455.ttf") format("truetype"), url("//at.alicdn.com/t/font_1442373896_4754455.svg#ifont") format("svg"); }

]]></style></defs><g class="transform-group"><g transform="scale(0.0625, 0.0625)"><path d="M682.457742 370.639458c0-93.692892-76.318176-169.637562-170.458253-169.637562-94.140077 0-170.450067 75.945693-170.450067 169.637562s76.30999 169.634492 170.450067 169.634492C606.139565 540.274974 682.457742 464.328257 682.457742 370.639458L682.457742 370.639458 682.457742 370.639458zM379.424031 370.639458c0-72.858378 59.353806-131.943055 132.575458-131.943055 73.222675 0 132.576481 59.083653 132.576481 131.943055 0 72.866564-59.353806 131.937938-132.576481 131.937938C438.777837 502.577397 379.424031 443.507046 379.424031 370.639458L379.424031 370.639458 379.424031 370.639458zM815.033199 370.639458c0-166.547177-135.662773-301.576523-303.033711-301.576523-167.369915 0-303.033711 135.029346-303.033711 301.576523 0 166.537967 303.033711 527.751752 303.033711 527.751752S815.033199 537.178449 815.033199 370.639458L815.033199 370.639458 815.033199 370.639458zM511.999488 106.756419c146.43614 0 265.164219 118.136607 265.164219 263.883039 0 145.742339-265.164219 471.211015-265.164219 471.211015S246.848573 516.374634 246.848573 370.639458C246.848573 224.89405 365.572558 106.756419 511.999488 106.756419L511.999488 106.756419 511.999488 106.756419zM645.960503 777.575588c-8.295943 11.32493-16.390295 22.190395-24.166399 32.501228 80.871889 9.268084 136.428206 28.462239 136.428206 50.618864 0 31.221072-110.2418 56.544831-246.218728 56.544831-135.985114 0-246.213611-25.323758-246.213611-56.544831 0-22.159696 55.54813-41.35078 136.420019-50.618864-7.776104-10.310833-15.870456-21.175275-24.158213-32.501228-89.357144 15.875572-150.138462 47.137577-150.138462 83.120093 0 52.058656 127.193891 94.241384 284.09129 94.241384 156.898423 0 284.093337-42.182728 284.093337-94.241384 0-35.981493-60.781318-67.24452-150.140509-83.120093L645.960503 777.575588 645.960503 777.575588zM645.960503 777.575588" fill="#F2F5F9"></path></g></g></svg>