<?xml version="1.0" standalone="no"?><!DOCTYPE svg PUBLIC "-//W3C//DTD SVG 1.1//EN" "http://www.w3.org/Graphics/SVG/1.1/DTD/svg11.dtd"><svg width="64" height="64" viewBox="0 0 64 64" version="1.1" xmlns="http://www.w3.org/2000/svg" xmlns:xlink="http://www.w3.org/1999/xlink"><defs><style type="text/css"><![CDATA[
@font-face { font-family: ifont; src: url("//at.alicdn.com/t/font_1442373896_4754455.eot?#iefix") format("embedded-opentype"), url("//at.alicdn.com/t/font_1442373896_4754455.woff") format("woff"), url("//at.alicdn.com/t/font_1442373896_4754455.ttf") format("truetype"), url("//at.alicdn.com/t/font_1442373896_4754455.svg#ifont") format("svg"); }

]]></style></defs><g class="transform-group"><g transform="scale(0.0625, 0.0625)"><path d="M840.448 645.952c-36.864-36.928-101.312-27.776-137.856 8.96L629.12 728.448c-33.792 34.56-43.776 25.664-129.536-42.944C498.368 685.056 321.728 512.192 320.64 509.76c-40-48.448-48.128-67.392-12.736-103.68L329.984 384c0 0 41.664-41.792 58.816-59.072C425.408 288.256 425.28 228.544 388.48 191.68L270.144 73.024c-36.736-36.928-96.192-37.12-132.736-0.384L137.344 72.576c-15.296 15.104-51.584 51.2-80.896 81.28C8.256 213.44-89.92 419.52 264.32 759.168c366.656 351.68 571.84 262.208 631.104 202.56l12.096-12.224 7.36-7.424 44.16-44.16c36.544-36.672 36.416-96.448-0.384-133.184L840.448 645.952zM144.832 123.904c53.12-53.248 79.296-38.272 117.376 0l88.064 88.384c34.496 34.56 30.016 60.672-12.544 103.296-6.912 7.04-11.52 11.584-15.616 15.68l-192-192.64C134.848 133.824 139.84 128.96 144.832 123.904zM586.432 925.248c-143.36-62.272-280.128-197.248-280.128-197.248C84.864 515.712 42.432 350.144 63.616 250.496 70.528 215.36 98.048 173.376 115.84 151.552l190.208 187.776C300.224 345.152 280.256 373.184 271.168 382.4 261.376 391.936 241.344 417.28 245.824 442.752c14.208 86.4 138.304 197.12 184.576 242.816 61.696 60.032 130.496 110.656 173.568 104.576 19.456 2.432 57.28-34.944 82.432-60.928l190.208 187.84C763.968 1002.88 658.56 953.024 586.432 925.248zM909.696 890.24c-5.504 5.376-10.88 10.112-16.256 14.848l-190.72-191.296c1.088-1.216 2.176-2.432 3.264-3.648 44.352-44.48 78.528-61.44 128.704-11.2l58.688 58.944C945.6 810.432 961.152 838.72 909.696 890.24zM709.312 310.144c60.928 61.12 72.768 132.096 81.664 175.552 0.896 4.288 2.944 8 5.824 10.944 5.376 5.312 13.248 7.872 21.376 5.952 12.544-2.88 20.672-15.04 18.24-27.072-10.752-51.776-21.504-125.056-93.44-197.312C663.04 197.696 597.44 193.856 545.536 181.824c-12.352-2.88-24.96 4.608-28.416 16.704-3.328 12.16 3.968 24.384 16.32 27.2C577.088 235.968 628.8 229.248 709.312 310.144zM857.024 169.92c-130.688-131.392-235.392-144.768-310.976-163.136C533.632 3.776 520.896 11.136 517.504 23.296c-3.456 12.096 3.776 24.32 16 27.328 67.52 16.448 180.352 41.216 289.856 151.296 111.744 112.32 134.144 225.536 148.096 295.04 0.896 4.416 3.008 8.064 5.952 11.008 5.248 5.312 13.184 7.872 21.248 6.016 12.48-2.752 20.8-14.784 18.368-27.008C1001.344 409.152 1000 313.536 857.024 169.92z" fill="#F2F5F9"></path></g></g></svg>